<svg xmlns="http://www.w3.org/2000/svg" width="412" height="412" fill="none"><path stroke="#F6F7FF" stroke-opacity=".1" d="M411.5 205.499c-41.621-.212-78.544-26.835-91.871-66.304l-10.155-30.074-.474-1.403-.474 1.403-10.155 30.074c-13.327 39.469-50.25 66.092-91.871 66.304V103C206.5 46.39 252.391.5 309 .5S411.5 46.39 411.5 103v102.499Zm-411 1.002c41.621.212 78.544 26.835 91.871 66.304l10.155 30.074.474 1.403.474-1.403 10.155-30.074c13.327-39.469 50.25-66.092 91.871-66.304V309c0 56.609-45.891 102.5-102.5 102.5C46.39 411.5.5 365.609.5 309V206.501ZM206.501 411.5c.212-41.621 26.835-78.544 66.304-91.871l30.074-10.155 1.403-.474-1.403-.474-30.074-10.155c-39.469-13.327-66.092-50.25-66.304-91.871H309c56.609 0 102.5 45.891 102.5 102.5S365.609 411.5 309 411.5H206.501ZM103 .5h102.499c-.212 41.621-26.835 78.544-66.304 91.871l-30.074 10.155-1.403.474 1.403.474 30.074 10.155c39.469 13.327 66.092 50.25 66.304 91.871H103C46.39 205.5.5 159.609.5 103 .5 46.39 46.39.5 103 .5Z"/></svg>