<svg xmlns="http://www.w3.org/2000/svg" width="64" height="64" fill="none"><path fill="#4041D1" d="M29.5 33.52v5.75a.58.58 0 0 0 1 .41L37.16 33a.58.58 0 0 0-.49-1l-6.67.94a.58.58 0 0 0-.5.58Z"/><path fill="#BCBCFF" d="m42.23 44.93-1.7-1.71a5.93 5.93 0 0 0-8.38 0 2 2 0 0 0-.59 1.43 2 2 0 0 1-1.72 2 11.188 11.188 0 0 1-12.5-12.5 2 2 0 0 1 2-1.72 2 2 0 0 0 1.43-.59 5.93 5.93 0 0 0 0-8.38l-1.71-1.7a5.44 5.44 0 0 0-8.36.72A16.32 16.32 0 0 0 8 32.56 25.24 25.24 0 0 0 31.44 56a16.32 16.32 0 0 0 10.07-2.67 5.44 5.44 0 0 0 .72-8.4Z"/><path fill="#4041D1" d="M51.69 8H28.48a4.31 4.31 0 0 0-4.31 4.31v19.32a4.31 4.31 0 0 0 4.31 4.31h23.21A4.31 4.31 0 0 0 56 31.63V12.31A4.31 4.31 0 0 0 51.69 8Z"/><path fill="#EBEEF2" d="M30.26 18.55a5.59 5.59 0 0 1 9.1-3.33 1.09 1.09 0 0 0 1.44 0 5.58 5.58 0 0 1 8 7.68 21.764 21.764 0 0 0-1.56 2.15l-2.54 4.12a1.81 1.81 0 0 1-1.53.86 1.801 1.801 0 0 1-1.8-1.85l.06-1.59a1.35 1.35 0 0 0-1.33-1.39 1.339 1.339 0 0 0-1.35 1.39v1.59A1.8 1.8 0 0 1 37 30a1.79 1.79 0 0 1-1.53-.86L33 25.08c-.39-.62-1.11-1.55-1.57-2.12a5.601 5.601 0 0 1-1.17-4.41Z"/><path fill="#DCDFE2" d="m44.06 16.75-.65.3a1.64 1.64 0 0 1-1.64-.15l-2.15-1.52a1.09 1.09 0 0 0 1.18-.16c.39-.32.82-.59 1.28-.8a2.18 2.18 0 0 1 2.16.22 1.22 1.22 0 0 1-.18 2.11Z"/><path fill="#fff" d="M33.54 17.8a.67.67 0 0 1-.5-.21.691.691 0 0 1 0-1 3.82 3.82 0 0 1 2.7-1.1.7.7 0 0 1 0 1.39 2.45 2.45 0 0 0-1.73.71.68.68 0 0 1-.47.21Zm-.96 2.27a.7.7 0 0 1-.7-.7.21.21 0 0 1 0-.11.69.69 0 0 1 1.207-.418.71.71 0 0 1 .183.498.701.701 0 0 1-.69.73Z"/></svg>