<svg xmlns="http://www.w3.org/2000/svg" width="40" height="40" fill="none"><path fill="#BCBCFF" d="M5.12 15.107a8.406 8.406 0 0 1 13.705-5 1.668 1.668 0 0 0 2.175 0 8.4 8.4 0 0 1 12.038 11.55 34.749 34.749 0 0 0-2.319 3.225l-3.825 6.212a2.705 2.705 0 0 1-5.006-1.5l.075-2.387a2.032 2.032 0 0 0-2.05-2.094 2.036 2.036 0 0 0-2.031 2.094l.08 2.387a2.713 2.713 0 0 1-2.687 2.788 2.694 2.694 0 0 1-2.3-1.288c-.975-1.58-2.643-4.287-3.793-6.162-.575-.931-1.67-2.331-2.35-3.188a8.381 8.381 0 0 1-1.713-6.637Z"/><path fill="#DCDFE2" d="M30.957 24.513a.193.193 0 0 1-.17-.05l-1.3-1.312-3.162-3.163a.456.456 0 0 0-.625 0 .625.625 0 0 0-.05.838l2.825 3.194a.125.125 0 0 1-.175.175l-3.75-3.476a.45.45 0 0 0-.625 0l-.093.094a.45.45 0 0 0 0 .625l3.512 3.7a.118.118 0 0 1 .029.135.118.118 0 0 1-.029.04.125.125 0 0 1-.175 0l-3.644-3.25a.456.456 0 0 0-.625 0l-.093.094a.462.462 0 0 0 0 .625l3.356 3.519a.112.112 0 0 1 0 .156.113.113 0 0 1-.15 0l-2.606-2.2a.712.712 0 0 0-.482-.175.481.481 0 0 0-.406.8l2.619 2.619.487.487 1.92 1.894a.46.46 0 0 0 .055.05l3.125-5.063c.07-.112.157-.237.232-.356Zm.993-2.131-.368-.5a.406.406 0 0 0-.519-.113.987.987 0 0 0-.387 1.25l.187.432c.117.258.205.528.262.806.344-.513.707-1.006 1.082-1.494-.088-.131-.163-.269-.256-.381ZM8.713 24.257a3.85 3.85 0 0 1 .25-.788l.187-.43a.988.988 0 0 0-.387-1.25.406.406 0 0 0-.519.112l-.369.5c-.093.125-.168.256-.25.387.37.444.757.963 1.088 1.469Zm8.187-.187a.712.712 0 0 0-.48.174l-2.626 2.22a.112.112 0 0 1-.15 0 .113.113 0 0 1 0-.157l3.406-3.475a.462.462 0 0 0 0-.625l-.093-.094a.456.456 0 0 0-.625 0l-3.644 3.25a.125.125 0 0 1-.175 0 .118.118 0 0 1-.029-.135.12.12 0 0 1 .029-.04l3.512-3.7a.45.45 0 0 0 0-.625l-.093-.094a.45.45 0 0 0-.625 0l-3.75 3.475a.126.126 0 0 1-.164-.011.125.125 0 0 1-.011-.164l2.825-3.193a.625.625 0 0 0-.05-.838.456.456 0 0 0-.625 0l-3.163 3.163-1.3 1.312a.206.206 0 0 1-.125.056c.1.144.188.282.269.413l3.069 5h.03l1.888-1.975.488-.488 2.619-2.637a.48.48 0 0 0-.407-.813Zm8.994-11.688-.981.456a2.462 2.462 0 0 1-2.5-.219l-3.244-2.293a1.675 1.675 0 0 0 1.788-.238 8.332 8.332 0 0 1 1.912-1.212 3.306 3.306 0 0 1 3.263.337 1.838 1.838 0 0 1-.238 3.169Z"/><path fill="#fff" d="M10.05 13.976a1.05 1.05 0 0 1-.73-1.8 5.806 5.806 0 0 1 4.062-1.67 1.05 1.05 0 1 1 0 2.095 3.687 3.687 0 0 0-2.594 1.056c-.194.2-.46.314-.738.319Zm-1.437 3.406a1.05 1.05 0 0 1-1.044-1.05.625.625 0 0 1 0-.156 1.05 1.05 0 0 1 2.094.112v.05a1.05 1.05 0 0 1-1.05 1.044Z"/><path fill="#4041D1" d="M31.063 20.582a.981.981 0 0 0-.388 1.25l.188.431c.128.268.228.55.3.838a.207.207 0 0 1-.344.18l-1.3-1.312-3.162-3.162a.456.456 0 0 0-.625 0 .625.625 0 0 0-.05.837l2.825 3.194a.125.125 0 0 1-.175.175l-3.75-3.475a.45.45 0 0 0-.625 0l-.094.094a.45.45 0 0 0 0 .625l3.512 3.7a.131.131 0 0 1 0 .181.125.125 0 0 1-.175 0l-3.643-3.25a.462.462 0 0 0-.625 0l-.094.094a.462.462 0 0 0 0 .625l3.325 3.512a.113.113 0 0 1 0 .157.113.113 0 0 1-.15 0l-2.625-2.213a.719.719 0 0 0-.481-.181.482.482 0 0 0-.407.806l2.62 2.619.487.487 1.918 1.92a3.182 3.182 0 0 0 4.5 0l.07-.07a4.523 4.523 0 0 0 1.318-3.75 7.82 7.82 0 0 0-1.481-3.75l-.37-.5a.4.4 0 0 0-.5-.062Zm-22.819.106-.369.5a7.819 7.819 0 0 0-1.48 3.75 4.525 4.525 0 0 0 1.318 3.75l.069.069a3.183 3.183 0 0 0 4.5 0l1.918-1.919.488-.487 2.619-2.619a.48.48 0 0 0-.407-.806.719.719 0 0 0-.48.181l-2.626 2.213a.113.113 0 0 1-.15 0 .113.113 0 0 1 0-.157l3.406-3.475a.462.462 0 0 0 0-.625l-.093-.093a.462.462 0 0 0-.625 0l-3.644 3.25a.125.125 0 0 1-.175 0 .131.131 0 0 1 0-.182l3.512-3.7a.45.45 0 0 0 0-.625l-.093-.094a.45.45 0 0 0-.625 0l-3.75 3.476a.125.125 0 0 1-.175-.175l2.825-3.194a.624.624 0 0 0-.05-.838.456.456 0 0 0-.625 0l-3.163 3.163-1.3 1.312a.206.206 0 0 1-.344-.181 4.39 4.39 0 0 1 .27-.844l.187-.431a.981.981 0 0 0-.388-1.25.4.4 0 0 0-.55.031Z"/></svg>