<svg xmlns="http://www.w3.org/2000/svg" width="64" height="64" fill="none"><path fill="#BCBCFF" d="M32 38.81c-6.141.017-12.28-.28-18.39-.89A4.999 4.999 0 0 0 8 42.76v.05C8 50.1 18.75 56 32 56s24-5.9 24-13.19v-.05a5 5 0 0 0-5.61-4.84c-6.11.61-12.249.907-18.39.89Z"/><path fill="#4041D1" d="M50.39 37.92c-6.11.61-12.249.907-18.39.89-4.57 0-8.94-.15-13-.43.71 1.3-.37 3.79.41 5.06l5.36 8.72a4.11 4.11 0 0 0 3 2 3.891 3.891 0 0 0 4.28-4L32 46.88a3 3 0 0 1 2.77-3.18 2.92 2.92 0 0 1 3.06 3l-.15 3.3a4 4 0 0 0 2.9 4 3.89 3.89 0 0 0 4.29-1.72l5.5-8.94c.52-.84 1.08-1.64 1.67-2.43a1.88 1.88 0 0 0-1.62-3l-.03.01Z"/><path fill="#EBEEF2" d="M10.73 24.6a12.091 12.091 0 0 1 19.71-7.21 2.4 2.4 0 0 0 3.12 0A12.09 12.09 0 0 1 50.91 34a52.588 52.588 0 0 0-3.37 4.63L42 47.6a3.89 3.89 0 0 1-7.2-2.15L35 42a2.92 2.92 0 0 0-3-3 2.921 2.921 0 0 0-2.92 3l.11 3.43a3.888 3.888 0 0 1-3.89 4A3.89 3.89 0 0 1 22 47.6l-5.46-8.86a55.7 55.7 0 0 0-3.37-4.59 12.002 12.002 0 0 1-2.44-9.55Z"/><path fill="#DCDFE2" d="M32 39a2.918 2.918 0 0 1 3 3l-.11 3.43A3.89 3.89 0 0 0 42 47.6l5.5-8.94c.1-.17.22-.33.33-.5-4.85.42-10.22.65-15.87.65-5.65 0-11-.23-15.81-.65.14.2.26.4.37.58L22 47.6a3.89 3.89 0 0 0 7.2-2.16L29.11 42A2.922 2.922 0 0 1 32 39Zm8.6-18.31-1.39.66a3.56 3.56 0 0 1-3.56-.35L31 17.73a2.4 2.4 0 0 0 2.57-.34 11.801 11.801 0 0 1 2.76-1.74 4.73 4.73 0 0 1 4.69.48 2.65 2.65 0 0 1-.42 4.56Z"/><path fill="#fff" d="M17.82 23a1.51 1.51 0 0 1-1.05-2.59A8.31 8.31 0 0 1 22.61 18a1.51 1.51 0 1 1 0 3 5.35 5.35 0 0 0-3.74 1.52 1.48 1.48 0 0 1-1.05.48Zm-2.07 4.89a1.51 1.51 0 0 1-1.51-1.51.894.894 0 0 1 0-.23 1.51 1.51 0 0 1 3 .17v.07a1.5 1.5 0 0 1-1.49 1.5Z"/></svg>