<svg xmlns="http://www.w3.org/2000/svg" width="64" height="64" fill="none"><path fill="#DCDFE2" d="M32 16.39c3.61 0 6.65-2.76 7.55-6.52.19-.76-.35-1.5-1-1.35a10.68 10.68 0 0 0-5.07 2.85 2 2 0 0 1-2.92 0 10.68 10.68 0 0 0-5.07-2.85c-.67-.15-1.21.59-1 1.35.86 3.76 3.9 6.52 7.51 6.52Z"/><path fill="#EBEEF2" d="M51.86 32.73a11.31 11.31 0 0 0-9.32-9.19 11.528 11.528 0 0 0-2.74-.1 7.86 7.86 0 0 1-15.6 0 11.429 11.429 0 0 0-2.73.1 11.279 11.279 0 0 0-7 18.17c.91 1.15 2.38 3 3.15 4.28l5.1 8.28a3.63 3.63 0 0 0 6.72-2l-.1-3.2a2.73 2.73 0 1 1 5.45 0l-.1 3.2A3.638 3.638 0 0 0 38.28 56a3.63 3.63 0 0 0 3.1-1.73l5.13-8.35a51.407 51.407 0 0 1 3.15-4.33 11.23 11.23 0 0 0 2.2-8.86Z"/><path fill="#BCBCFF" d="M32 30.33a7.72 7.72 0 0 0 7.8-6.89 11.23 11.23 0 0 0-6.34 2.61 2.24 2.24 0 0 1-2.92 0 11.23 11.23 0 0 0-6.34-2.61 7.72 7.72 0 0 0 7.8 6.89Z"/><path fill="#4041D1" d="M33.46 26.05a2.24 2.24 0 0 1-2.92 0 11.16 11.16 0 0 0-5.28-2.46c1.12 3.22 3.74 5.49 6.74 5.49s5.62-2.27 6.74-5.49a11.16 11.16 0 0 0-5.28 2.46Z"/><path fill="#EBEEF2" d="M32 14.89a7.79 7.79 0 0 0 7.55-5.56.901.901 0 0 0-1-1.15 11.15 11.15 0 0 0-5.07 2.43 2.27 2.27 0 0 1-2.92 0 11.15 11.15 0 0 0-5.07-2.43.9.9 0 0 0-1 1.15A7.79 7.79 0 0 0 32 14.89Z"/><path fill="#4041D1" d="m28.53 21.41 3.26 3.25a.29.29 0 0 0 .42 0l3.26-3.25a.3.3 0 0 0-.21-.51h-.88a.31.31 0 0 1-.31-.31v-2.72a.5.5 0 0 0-.5-.51h-3.14a.5.5 0 0 0-.5.51v2.72a.31.31 0 0 1-.31.31h-.88a.3.3 0 0 0-.21.51Z"/></svg>