<svg xmlns="http://www.w3.org/2000/svg" width="24" height="24" fill="none"><path fill="#F6F7FF" d="M13.028 2.001c1.125.002 1.696.008 2.189.022l.194.007c.224.008.445.018.712.03 1.064.05 1.79.218 2.427.465.66.254 1.216.598 1.772 1.154a4.908 4.908 0 0 1 1.153 1.771c.247.637.415 1.364.465 2.428.012.266.022.488.03.712l.006.194a79 79 0 0 1 .023 2.188l.001.746v1.31a78.831 78.831 0 0 1-.023 2.188l-.006.195c-.008.224-.018.445-.03.712-.05 1.064-.22 1.79-.466 2.427a4.883 4.883 0 0 1-1.153 1.772 4.915 4.915 0 0 1-1.772 1.153c-.637.247-1.363.415-2.427.465a72.11 72.11 0 0 1-.712.03l-.194.006a77.53 77.53 0 0 1-2.189.023l-.746.001h-1.309a78.43 78.43 0 0 1-2.189-.023l-.194-.006a63.036 63.036 0 0 1-.712-.03c-1.064-.05-1.79-.22-2.428-.466a4.889 4.889 0 0 1-1.771-1.153 4.904 4.904 0 0 1-1.154-1.772c-.247-.637-.415-1.363-.465-2.427a74.1 74.1 0 0 1-.03-.712l-.005-.194A79.047 79.047 0 0 1 2 13.027v-2.056a82.88 82.88 0 0 1 .022-2.188l.007-.194c.008-.224.018-.446.03-.712.05-1.065.218-1.79.465-2.428A4.88 4.88 0 0 1 3.68 3.68a4.897 4.897 0 0 1 1.77-1.155c.638-.247 1.363-.415 2.428-.465l.712-.03.194-.005A79 79 0 0 1 10.972 2h2.056Zm-1.028 5A5 5 0 1 0 12 17a5 5 0 0 0 0-10Zm0 2A3 3 0 1 1 12.001 15a3 3 0 0 1 0-6Zm5.25-3.5a1.25 1.25 0 0 0 0 2.498 1.25 1.25 0 0 0 0-2.5Z"/></svg>