<svg xmlns="http://www.w3.org/2000/svg" width="64" height="64" fill="none"><path fill="#BCBCFF" d="M14 8h18.62a2.51 2.51 0 0 1 2.51 2.51v42.94H11.52V10.51A2.51 2.51 0 0 1 14 8Z"/><path fill="#EBEEF2" d="M35.13 29.85h14.53a2.82 2.82 0 0 1 2.82 2.82v20.78H35.13v-23.6ZM18.19 13.44h-.61a1.21 1.21 0 0 0-1.21 1.21v.61c0 .668.542 1.21 1.21 1.21h.61a1.21 1.21 0 0 0 1.21-1.21v-.61a1.21 1.21 0 0 0-1.21-1.21Zm5.44 0h-.61a1.21 1.21 0 0 0-1.21 1.21v.61c0 .668.542 1.21 1.21 1.21h.61a1.21 1.21 0 0 0 1.21-1.21v-.61a1.21 1.21 0 0 0-1.21-1.21Zm5.43 0h-.61a1.21 1.21 0 0 0-1.21 1.21v.61c0 .668.542 1.21 1.21 1.21h.61a1.21 1.21 0 0 0 1.21-1.21v-.61a1.21 1.21 0 0 0-1.21-1.21Zm-10.87 5.82h-.61a1.21 1.21 0 0 0-1.21 1.21v.61c0 .668.542 1.21 1.21 1.21h.61a1.21 1.21 0 0 0 1.21-1.21v-.61a1.21 1.21 0 0 0-1.21-1.21Zm5.44 0h-.61a1.21 1.21 0 0 0-1.21 1.21v.61c0 .668.542 1.21 1.21 1.21h.61a1.21 1.21 0 0 0 1.21-1.21v-.61a1.21 1.21 0 0 0-1.21-1.21Zm5.43 0h-.61a1.21 1.21 0 0 0-1.21 1.21v.61c0 .668.542 1.21 1.21 1.21h.61a1.21 1.21 0 0 0 1.21-1.21v-.61a1.21 1.21 0 0 0-1.21-1.21Zm-10.87 5.83h-.61a1.21 1.21 0 0 0-1.21 1.21v.61c0 .668.542 1.21 1.21 1.21h.61a1.21 1.21 0 0 0 1.21-1.21v-.61a1.21 1.21 0 0 0-1.21-1.21Zm5.44 0h-.61a1.21 1.21 0 0 0-1.21 1.21v.61c0 .668.542 1.21 1.21 1.21h.61a1.21 1.21 0 0 0 1.21-1.21v-.61a1.21 1.21 0 0 0-1.21-1.21Zm5.43 0h-.61a1.21 1.21 0 0 0-1.21 1.21v.61c0 .668.542 1.21 1.21 1.21h.61a1.21 1.21 0 0 0 1.21-1.21v-.61a1.21 1.21 0 0 0-1.21-1.21Zm-10.87 5.82h-.61a1.21 1.21 0 0 0-1.21 1.21v.61c0 .668.542 1.21 1.21 1.21h.61a1.21 1.21 0 0 0 1.21-1.21v-.61a1.21 1.21 0 0 0-1.21-1.21Zm5.44 0h-.61a1.21 1.21 0 0 0-1.21 1.21v.61c0 .668.542 1.21 1.21 1.21h.61a1.21 1.21 0 0 0 1.21-1.21v-.61a1.21 1.21 0 0 0-1.21-1.21Zm5.43 0h-.61a1.21 1.21 0 0 0-1.21 1.21v.61c0 .668.542 1.21 1.21 1.21h.61a1.21 1.21 0 0 0 1.21-1.21v-.61a1.21 1.21 0 0 0-1.21-1.21Zm-10.87 5.82h-.61a1.21 1.21 0 0 0-1.21 1.21v.61c0 .668.542 1.21 1.21 1.21h.61a1.21 1.21 0 0 0 1.21-1.21v-.61a1.21 1.21 0 0 0-1.21-1.21Zm5.44 0h-.61a1.21 1.21 0 0 0-1.21 1.21v.61c0 .668.542 1.21 1.21 1.21h.61a1.21 1.21 0 0 0 1.21-1.21v-.61a1.21 1.21 0 0 0-1.21-1.21Zm5.43 0h-.61a1.21 1.21 0 0 0-1.21 1.21v.61c0 .668.542 1.21 1.21 1.21h.61a1.21 1.21 0 0 0 1.21-1.21v-.61a1.21 1.21 0 0 0-1.21-1.21Z"/><path fill="#4041D1" d="M20.29 45.12h6.08a1.13 1.13 0 0 1 1.13 1.13v7.21h-8.34v-7.21a1.131 1.131 0 0 1 1.13-1.13Z"/><path fill="#DCDFE2" d="M46.38 53.45h-5.15v-2.58a2.57 2.57 0 0 1 2.57-2.57 2.58 2.58 0 0 1 2.58 2.57v2.58Z"/><path fill="#EBEEF2" d="M53.22 53.45H10.78a1.12 1.12 0 0 0-1.12 1.12v.3c0 .619.502 1.12 1.12 1.12h42.44a1.12 1.12 0 0 0 1.12-1.12v-.3a1.12 1.12 0 0 0-1.12-1.12Z"/><path fill="#BCBCFF" d="M36.9 19.83a4 4 0 0 1 6.58-2.41.79.79 0 0 0 1 0 4 4 0 0 1 6.57 2.39 4 4 0 0 1-.74 3.19c-.39.51-.79 1-1.13 1.55l-1.83 3a1.3 1.3 0 0 1-1.11.62A1.291 1.291 0 0 1 45 26.78v-1.14a1 1 0 0 0-2 0v1.14a1.29 1.29 0 0 1-1.3 1.34 1.28 1.28 0 0 1-1.1-.62l-1.82-3c-.28-.44-.8-1.12-1.13-1.53a4 4 0 0 1-.75-3.14Z"/><path fill="#4041D1" d="m46.87 18.52-.46.22a1.209 1.209 0 0 1-1.19-.1l-1.56-1.1a.8.8 0 0 0 .86-.12c.28-.233.59-.427.92-.58A1.61 1.61 0 0 1 47 17a.89.89 0 0 1-.13 1.52Z"/><path fill="#fff" d="M39.27 19.29a.51.51 0 0 1-.35-.87 2.76 2.76 0 0 1 1.95-.79.51.51 0 0 1 0 1 1.81 1.81 0 0 0-1.25.5.49.49 0 0 1-.35.16Zm-.69 1.64a.5.5 0 0 1-.5-.51v-.08a.498.498 0 0 1 .53-.47.5.5 0 0 1 .47.53.502.502 0 0 1-.5.53Z"/></svg>