<svg xmlns="http://www.w3.org/2000/svg" width="64" height="64" fill="none"><path fill="#BCBCFF" d="M48.91 14.06c-6.53-.71-12.1-2.76-15.57-5.59a2.14 2.14 0 0 0-2.68 0c-3.47 2.83-9 4.88-15.57 5.59a2.19 2.19 0 0 0-2 2.18v21.38a11.909 11.909 0 0 0 6.29 10.48 61.153 61.153 0 0 1 6.56 4.12l4.55 3.29a2.58 2.58 0 0 0 3 0l4.55-3.29a61.133 61.133 0 0 1 6.56-4.12 11.91 11.91 0 0 0 6.25-10.48V16.24a2.19 2.19 0 0 0-1.94-2.18Z"/><path fill="#4041D1" d="m37.26 22.93-12 14.65 4.68 7.53A13.73 13.73 0 0 1 32 52.35V56a2.54 2.54 0 0 0 1.51-.49l6.09-4.4a33.828 33.828 0 0 1 4.69-2.84 11.92 11.92 0 0 0 6.58-10.65v-1.08a13.61 13.61 0 0 0-13.61-13.61Z"/><path fill="#EBEEF2" d="M21 28.16a6.28 6.28 0 0 1 10.24-3.75 1.24 1.24 0 0 0 1.62 0 6.27 6.27 0 0 1 9 8.64 28.959 28.959 0 0 0-1.75 2.41l-2.85 4.65a2 2 0 0 1-3.73-1.09l.05-1.78a1.51 1.51 0 0 0-1.58-1.6 1.51 1.51 0 0 0-1.5 1.56l.05 1.8a2 2 0 0 1-3.73 1.09c-.72-1.19-2-3.21-2.83-4.61a29.242 29.242 0 0 0-1.76-2.38A6.28 6.28 0 0 1 21 28.16Z"/><path fill="#DCDFE2" d="m36.47 26.12-.72.34a1.83 1.83 0 0 1-1.85-.16l-2.42-1.71a1.25 1.25 0 0 0 1.33-.18 6.09 6.09 0 0 1 1.43-.91 2.46 2.46 0 0 1 2.44.26 1.37 1.37 0 0 1-.21 2.36Z"/><path fill="#fff" d="M25.07 27.45a1 1 0 0 1-.71-.3 1.002 1.002 0 0 1 0-1.42 4.54 4.54 0 0 1 3.18-1.29 1 1 0 0 1 0 2 2.55 2.55 0 0 0-1.79.73 1 1 0 0 1-.68.28ZM24 30a1 1 0 0 1-1-1v-.14a1.002 1.002 0 0 1 2 .1A1 1 0 0 1 24 30Z"/></svg>