<svg xmlns="http://www.w3.org/2000/svg" width="64" height="64" fill="none"><path fill="#4041D1" d="M52.22 52.22A3.78 3.78 0 0 0 48.44 56H56a3.78 3.78 0 0 0-3.78-3.78Z"/><path fill="#DCDFE2" d="M35.7 34.27H9.59V56H35.7V34.27Z"/><path fill="#BCBCFF" d="M15.15 40.66h14.73v6.89H15.15a.65.65 0 0 1-.65-.65v-5.59a.65.65 0 0 1 .65-.65Z"/><path fill="#4041D1" d="m14.18 25.48-6 7.69a.68.68 0 0 0 .54 1.1h30.53v-9.06H14.72a.68.68 0 0 0-.54.27Z"/><path fill="#EBEEF2" d="M41.33 25.74 31 34.57a3.32 3.32 0 0 0-1.15 2.51V56h22.9V37.08a3.33 3.33 0 0 0-1.16-2.51l-10.26-8.83Z"/><path fill="#DCDFE2" d="m40.15 27.08-9.89 8.48a3.32 3.32 0 0 0-.38 1.52v3.58l10.65-9.13a1.2 1.2 0 0 1 1.59 0l10.66 9.13v-3.58a3.331 3.331 0 0 0-.39-1.52l-9.88-8.48a1.82 1.82 0 0 0-2.36 0Z"/><path fill="#BCBCFF" d="M54.19 38.59a1.76 1.76 0 0 1-1.19-.44l-11.19-9.61a.73.73 0 0 0-1 0l-11.1 9.55a1.88 1.88 0 0 1-2.41.08 1.821 1.821 0 0 1 0-2.77l12.87-11a1.79 1.79 0 0 1 2.36 0l12.8 11a1.87 1.87 0 0 1 .48 2.29 1.81 1.81 0 0 1-1.62.9ZM44.84 56v-9.35a1.9 1.9 0 0 0-1.9-1.89H39a1.89 1.89 0 0 0-1.89 1.89V56h7.73Z"/><path fill="#DCDFE2" d="M40.99 40.25a1.74 1.74 0 1 0 0-3.48 1.74 1.74 0 0 0 0 3.48Z"/><path fill="#BCBCFF" d="M15.89 53.48a3.74 3.74 0 0 0-5.6 0A2.54 2.54 0 0 0 8 56h10.18a2.53 2.53 0 0 0-2.29-2.52Z"/></svg>