<svg xmlns="http://www.w3.org/2000/svg" width="131" height="48" fill="none"><path fill="#F6F7FF" fill-rule="evenodd" d="M23.627 23.627V11.814C23.627 5.289 28.917 0 35.441 0c6.525 0 11.814 5.29 11.814 11.814v11.813a11.24 11.24 0 0 1-10.65-7.643l-1.164-3.45-1.165 3.45a11.24 11.24 0 0 1-10.649 7.643Zm0 0h11.814c6.525 0 11.814 5.29 11.814 11.814 0 6.525-5.29 11.814-11.814 11.814H23.627a11.24 11.24 0 0 1 7.644-10.65l3.45-1.164-3.45-1.165a11.24 11.24 0 0 1-7.644-10.649Zm0 0v11.814c0 6.525-5.289 11.814-11.813 11.814C5.289 47.255 0 41.965 0 35.44V23.627a11.24 11.24 0 0 1 10.649 7.644l1.165 3.45 1.164-3.45a11.24 11.24 0 0 1 10.65-7.644Zm-7.643-10.649a11.24 11.24 0 0 1 7.643 10.65H11.814C5.289 23.627 0 18.337 0 11.813 0 5.289 5.29 0 11.814 0h11.813a11.24 11.24 0 0 1-7.643 10.649l-3.45 1.165 3.45 1.164Z" clip-rule="evenodd"/><path fill="#F6F7FF" d="M63.349 33.627h-4.895V31.44h4.73c1.687 0 3.081-.324 4.184-.97 1.112-.648 1.942-1.573 2.488-2.776.547-1.203.82-2.634.82-4.293 0-1.64-.268-3.054-.806-4.238-.538-1.195-1.344-2.11-2.42-2.748-1.066-.648-2.397-.971-3.992-.971h-5.113v-2.188h5.277c1.978 0 3.669.406 5.072 1.217 1.413.811 2.493 1.978 3.24 3.5.748 1.513 1.122 3.322 1.122 5.428 0 2.123-.379 3.951-1.135 5.482-.757 1.522-1.86 2.694-3.309 3.514-1.44.82-3.194 1.23-5.263 1.23Zm-3.829-20.37v20.37h-2.46v-20.37h2.46Zm21.89 20.699c-1.468 0-2.74-.329-3.815-.985-1.066-.656-1.887-1.572-2.46-2.748-.575-1.185-.862-2.556-.862-4.115 0-1.568.282-2.949.848-4.143.565-1.194 1.358-2.128 2.379-2.802 1.03-.675 2.233-1.012 3.609-1.012.793 0 1.581.132 2.365.396a5.866 5.866 0 0 1 2.133 1.285c.647.593 1.162 1.377 1.545 2.352.383.975.574 2.174.574 3.596v1.011H75.941v-2.023h10.513l-1.08.766c0-1.021-.159-1.928-.478-2.721-.32-.793-.798-1.417-1.436-1.873-.628-.456-1.412-.684-2.351-.684-.939 0-1.746.233-2.42.698a4.494 4.494 0 0 0-1.531 1.79 5.412 5.412 0 0 0-.534 2.38v1.34c0 1.157.201 2.137.602 2.939.401.802.962 1.413 1.682 1.832.72.41 1.554.615 2.502.615.61 0 1.166-.087 1.668-.26a3.595 3.595 0 0 0 1.298-.806c.365-.365.643-.812.834-1.34l2.27.656a4.993 4.993 0 0 1-1.203 2.023c-.556.575-1.249 1.026-2.078 1.354-.83.319-1.76.479-2.79.479Zm10.295-9.516v9.187h-2.324V18.342h2.242v2.407h.219a4.353 4.353 0 0 1 1.627-1.887c.729-.474 1.672-.711 2.83-.711 1.03 0 1.932.21 2.707.629.775.419 1.376 1.057 1.805 1.914.437.848.656 1.923.656 3.226v9.707h-2.324v-9.543c0-1.194-.315-2.128-.944-2.802-.629-.684-1.485-1.026-2.57-1.026-.748 0-1.417.164-2.01.492a3.583 3.583 0 0 0-1.408 1.422c-.337.62-.506 1.377-.506 2.27Zm18.827-6.098v1.996h-7.903v-1.996h7.903Zm-5.606-3.636h2.325v14.546c0 .793.164 1.377.492 1.75.328.365.847.547 1.558.547.155 0 .315-.009.479-.027.173-.018.36-.046.56-.082l.493 2.105a3.906 3.906 0 0 1-.807.192c-.31.054-.624.082-.943.082-1.231 0-2.233-.365-3.008-1.094-.766-.73-1.149-1.677-1.149-2.844V14.706Zm11.772 19.277c-.966 0-1.845-.182-2.638-.547a4.528 4.528 0 0 1-1.887-1.613c-.465-.702-.697-1.55-.697-2.543 0-.875.173-1.582.519-2.12a3.677 3.677 0 0 1 1.381-1.285 7.27 7.27 0 0 1 1.914-.71 23.959 23.959 0 0 1 2.119-.37c.93-.118 1.682-.21 2.256-.273.583-.064 1.007-.173 1.272-.328.273-.155.41-.42.41-.793v-.082c0-.976-.269-1.732-.807-2.27-.528-.547-1.335-.82-2.42-.82-1.112 0-1.987.246-2.625.738-.638.483-1.084 1.003-1.34 1.559l-2.242-.793c.401-.93.934-1.654 1.6-2.174a6.167 6.167 0 0 1 2.187-1.094 9.129 9.129 0 0 1 2.338-.314c.492 0 1.058.06 1.696.178a5.302 5.302 0 0 1 1.859.71c.611.356 1.112.898 1.504 1.627.401.72.601 1.687.601 2.899v10.062h-2.351V31.55h-.11c-.155.328-.419.684-.793 1.067-.373.373-.87.697-1.49.97-.61.265-1.362.397-2.256.397Zm.356-2.106c.93 0 1.713-.182 2.351-.546.638-.365 1.121-.834 1.45-1.409a3.66 3.66 0 0 0 .492-1.818v-2.16c-.1.118-.319.228-.656.328-.329.091-.711.173-1.149.246-.428.073-.848.137-1.258.191l-.984.11a8.843 8.843 0 0 0-1.709.396c-.529.174-.957.433-1.285.78-.319.346-.479.82-.479 1.421 0 .812.301 1.427.903 1.846.61.41 1.385.615 2.324.615Zm11.416-18.62v20.37h-2.324v-20.37h2.324Z"/></svg>