<svg xmlns="http://www.w3.org/2000/svg" width="64" height="64" fill="none"><path fill="#BCBCFF" d="M19 43.31v-1.55a3.46 3.46 0 1 0-6.92 0v1.55a3 3 0 0 0 1.52 2.63 3.9 3.9 0 0 0 3.88 0A3 3 0 0 0 19 43.31Z"/><path fill="#BCBCFF" d="M22.46 56H8.67a.67.67 0 0 1-.67-.67V53.5a7.56 7.56 0 0 1 7.57-7.56 7.561 7.561 0 0 1 7.57 7.56v1.83a.68.68 0 0 1-.68.67Zm29.43-12.69v-1.55a3.46 3.46 0 1 0-6.92 0v1.55a3 3 0 0 0 1.52 2.63 3.9 3.9 0 0 0 3.88 0 3 3 0 0 0 1.52-2.63Z"/><path fill="#BCBCFF" d="M55.33 56H41.54a.68.68 0 0 1-.68-.67V53.5a7.56 7.56 0 0 1 7.57-7.56A7.56 7.56 0 0 1 56 53.5v1.83a.67.67 0 0 1-.67.67Z"/><path fill="#4041D1" d="M38.15 33.44v-2.75a6.16 6.16 0 0 0-3.07-5.33 6.16 6.16 0 0 0-6.16 0 6.16 6.16 0 0 0-3.07 5.33v2.75a5.38 5.38 0 0 0 2.7 4.67 6.86 6.86 0 0 0 6.9 0 5.38 5.38 0 0 0 2.7-4.67Z"/><path fill="#4041D1" d="M44.26 56H19.74a1.2 1.2 0 0 1-1.2-1.2v-3.24a13.46 13.46 0 0 1 26.92 0v3.24a1.2 1.2 0 0 1-1.2 1.2Z"/></svg>