<svg xmlns="http://www.w3.org/2000/svg" width="64" height="64" fill="none"><path fill="#EBEEF2" d="M8.18 24a13.52 13.52 0 0 1 22.07-8.31 2.7 2.7 0 0 0 3.5 0A13.51 13.51 0 0 1 52.53 35c-.804.88-1.527 1.83-2.16 2.84l-7.15 11.6a4.33 4.33 0 0 1-3.7 2.07A4.35 4.35 0 0 1 35.17 47l.13-3.83a3.271 3.271 0 0 0-3.3-3.35 3.27 3.27 0 0 0-3.26 3.37l.15 3.81a4.35 4.35 0 0 1-6.465 3.939 4.35 4.35 0 0 1-1.585-1.519c-1.84-3-5.24-8.52-7-11.39a21.007 21.007 0 0 0-2.32-3A13.47 13.47 0 0 1 8.18 24Z"/><path fill="#DCDFE2" d="m41.62 19.36-1.56.73a4 4 0 0 1-4-.35l-5.21-3.69a2.69 2.69 0 0 0 2.88-.39 13.239 13.239 0 0 1 3.08-1.94 5.3 5.3 0 0 1 5.24.54 3 3 0 0 1-.43 5.1Z"/><path fill="#BCBCFF" d="M25 33.25a5 5 0 1 0 0-10 5 5 0 0 0 0 10Z"/><path fill="#4041D1" d="M23.8 23.39a5.1 5.1 0 0 0-3.72 3.92 3.84 3.84 0 0 0 4.57 4.56 5.09 5.09 0 0 0 3.92-3.71v-.08a3.9 3.9 0 0 0-4.71-4.71l-.06.02Z"/><path fill="#BCBCFF" d="M38.32 26.66a2 2 0 1 1-4 0 2 2 0 0 1 4 0Z"/><path fill="#4041D1" d="M35.89 24.76a2 2 0 0 0-1.46 1.53 1.51 1.51 0 0 0 1.79 1.79 2 2 0 0 0 1.54-1.45 1.53 1.53 0 0 0-1.84-1.85l-.03-.02Z"/><path fill="#BCBCFF" d="M35.6 35.45a1.46 1.46 0 1 0 0-2.92 1.46 1.46 0 0 0 0 2.92Z"/><path fill="#4041D1" d="M35.25 32.58a1.48 1.48 0 0 0-1.08 1.14 1.12 1.12 0 0 0 1.33 1.33A1.48 1.48 0 0 0 36.64 34a1.13 1.13 0 0 0-1.37-1.37l-.02-.05Z"/><path fill="#BCBCFF" d="M45.53 30.33a2.21 2.21 0 1 1-4.42 0 2.21 2.21 0 0 1 4.42 0Z"/><path fill="#4041D1" d="M42.79 28.18a2.25 2.25 0 0 0-1.64 1.73 1.69 1.69 0 0 0 2 2 2.23 2.23 0 0 0 1.73-1.64 1.73 1.73 0 0 0-2.09-2.09Z"/></svg>