<svg xmlns="http://www.w3.org/2000/svg" width="40" height="40" fill="none"><path fill="#BCBCFF" d="M6.706 19.563a7.5 7.5 0 0 1 12.25-4.488 1.488 1.488 0 0 0 1.944 0 7.5 7.5 0 0 1 10.788 10.35 32.604 32.604 0 0 0-2.1 2.881l-3.4 5.557a2.42 2.42 0 0 1-2.075 1.15 2.42 2.42 0 0 1-2.42-2.5l.07-2.132a1.82 1.82 0 0 0-2.522-1.731 1.82 1.82 0 0 0-1.11 1.731l.069 2.132a2.418 2.418 0 0 1-4.475 1.35l-3.394-5.513a34.443 34.443 0 0 0-2.1-2.85 7.5 7.5 0 0 1-1.525-5.937Z"/><path fill="#DCDFE2" d="m25.275 17.131-.862.382a2.213 2.213 0 0 1-2.213-.194l-2.887-2.031a1.488 1.488 0 0 0 1.6-.213 7.848 7.848 0 0 1 1.712-1.081 2.962 2.962 0 0 1 2.919.3 1.65 1.65 0 0 1-.269 2.837Z"/><path fill="#fff" d="M11.113 18.556a.938.938 0 0 1-.625-1.606 5.15 5.15 0 0 1 3.63-1.481.938.938 0 0 1 0 1.875 3.325 3.325 0 0 0-2.324.944.924.924 0 0 1-.681.268Zm-1.288 3.05a.938.938 0 0 1-.938-.937.556.556 0 0 1 0-.144.94.94 0 0 1 1.875.106v.044a.938.938 0 0 1-.937.931Z"/><path fill="#4041D1" d="m21.844 9.175 1.406-.412a.268.268 0 0 0 0-.513l-1.406-.406a1.83 1.83 0 0 1-1.25-1.25l-.407-1.406a.268.268 0 0 0-.512 0l-.406 1.406a1.83 1.83 0 0 1-1.25 1.25l-1.406.406a.269.269 0 0 0 0 .513l1.406.4a1.838 1.838 0 0 1 1.25 1.25l.406 1.406a.27.27 0 0 0 .512 0l.407-1.406a1.838 1.838 0 0 1 1.25-1.238ZM13.5 11.206l.544.3a.106.106 0 0 0 .15-.15l-.3-.543a.787.787 0 0 1 0-.744l.3-.538a.106.106 0 0 0-.15-.15l-.544.294a.75.75 0 0 1-.744 0l-.537-.287a.106.106 0 0 0-.15.15l.293.537a.75.75 0 0 1 0 .744l-.293.544a.106.106 0 0 0 .15.15l.537-.3a.788.788 0 0 1 .744-.007Zm-7.2 3.182.188.625a.112.112 0 0 0 .224 0l.188-.625a.8.8 0 0 1 .563-.563l.625-.187a.113.113 0 0 0 0-.225l-.625-.188a.8.8 0 0 1-.563-.562l-.188-.625a.113.113 0 1 0-.224 0l-.188.625a.8.8 0 0 1-.563.562l-.625.188a.112.112 0 1 0 0 .225l.625.187a.8.8 0 0 1 .563.563Zm20.156-3.182-.543.3a.106.106 0 0 1-.15-.15l.3-.543a.787.787 0 0 0 0-.744l-.3-.538a.106.106 0 0 1 .15-.15l.543.294a.75.75 0 0 0 .744 0l.538-.294a.107.107 0 0 1 .15.15l-.294.538a.75.75 0 0 0 0 .744l.293.543a.107.107 0 0 1-.076.177.107.107 0 0 1-.073-.027l-.538-.3a.788.788 0 0 0-.744 0Zm7.232 3.182-.188.625a.112.112 0 0 1-.225 0l-.212-.625a.8.8 0 0 0-.563-.563l-.625-.187a.113.113 0 0 1 0-.225l.625-.188a.8.8 0 0 0 .563-.562l.187-.625a.112.112 0 1 1 .225 0l.188.625a.8.8 0 0 0 .562.562l.625.188a.112.112 0 1 1 0 .225l-.625.187a.799.799 0 0 0-.538.563Z"/></svg>