<svg xmlns="http://www.w3.org/2000/svg" width="64" height="64" fill="none"><path fill="#BCBCFF" d="M32 25.29c8.24 0 15.51.82 19.83 2.08A3.21 3.21 0 0 0 56 24.46v-.05C56 18.69 45.25 14 32 14S8 18.69 8 24.41v.05a3.21 3.21 0 0 0 4.17 2.91c4.32-1.26 11.59-2.08 19.83-2.08Z"/><path fill="#4041D1" d="M32 16.93c-12.59 0-22.79 4.41-22.79 9.85a3.35 3.35 0 0 0 3 .57c4.32-1.26 11.59-2.08 19.83-2.08 8.24 0 15.51.82 19.83 2.08a3.35 3.35 0 0 0 3-.57c-.08-5.44-10.28-9.85-22.87-9.85Z"/><path fill="#EBEEF2" d="M27.69 18.79a4.31 4.31 0 0 0-4.31 4.31v4.15a1.5 1.5 0 0 0 1 1.42 11.16 11.16 0 0 0 6.54 0 1.5 1.5 0 0 0 1-1.42V23.1a4.31 4.31 0 0 0-4.23-4.31Z"/><path fill="#DCDFE2" d="M20 20.77a3.34 3.34 0 0 0-3.34 3.34v3.21a1.17 1.17 0 0 0 .8 1.11 8.68 8.68 0 0 0 5.08 0 1.15 1.15 0 0 0 .8-1.11v-3.21A3.328 3.328 0 0 0 20 20.77Z"/><path fill="#DCDFE2" d="M13.6 22.58a3.089 3.089 0 0 0-3.09 3.1v2a1.07 1.07 0 0 0 .74 1c1.53.48 3.17.48 4.7 0a1.07 1.07 0 0 0 .74-1v-2a3.09 3.09 0 0 0-3.09-3.1Z"/><path fill="#EBEEF2" d="M36.31 18.79a4.31 4.31 0 0 1 4.31 4.31v4.15a1.5 1.5 0 0 1-1 1.42 11.16 11.16 0 0 1-6.54 0 1.5 1.5 0 0 1-1-1.42V23.1a4.31 4.31 0 0 1 4.23-4.31Z"/><path fill="#DCDFE2" d="M44 20.77a3.34 3.34 0 0 1 3.34 3.34v3.21a1.17 1.17 0 0 1-.8 1.11 8.68 8.68 0 0 1-5.08 0 1.15 1.15 0 0 1-.8-1.11v-3.21A3.33 3.33 0 0 1 44 20.77Z"/><path fill="#DCDFE2" d="M50.4 22.58a3.089 3.089 0 0 1 3.09 3.1v2a1.07 1.07 0 0 1-.74 1 7.85 7.85 0 0 1-4.7 0 1.07 1.07 0 0 1-.74-1v-2a3.089 3.089 0 0 1 3.09-3.1Z"/><path fill="#BCBCFF" d="M53.87 27.54a.49.49 0 0 1-.49-.4c-.81-.79-8.57-1.85-21.38-1.85-12.81 0-20.57 1.06-21.38 1.85a.49.49 0 0 1-.49.4.5.5 0 0 1-.5-.5c0-.52 0-1.38 6.86-2.09 4.14-.42 9.65-.66 15.51-.66 5.86 0 11.37.24 15.51.66 6.86.71 6.86 1.57 6.86 2.09a.5.5 0 0 1-.5.5Z"/><path fill="#4041D1" d="M28.02 23.39h-.67a.85.85 0 0 0-.85.85v1.09c0 .47.38.85.85.85h.67c.47 0 .85-.38.85-.85v-1.09a.85.85 0 0 0-.85-.85Zm-7.69.38h-.67a.85.85 0 0 0-.85.85v1.09c0 .47.38.85.85.85h.67c.47 0 .85-.38.85-.85v-1.09a.85.85 0 0 0-.85-.85Zm-6.4.87h-.67a.85.85 0 0 0-.85.85v1.09c0 .47.38.85.85.85h.67c.47 0 .85-.38.85-.85v-1.09a.85.85 0 0 0-.85-.85Zm22.65 1.55h.67c.47 0 .85-.38.85-.85v-1.09a.85.85 0 0 0-.85-.85h-.67a.85.85 0 0 0-.85.85v1.09c0 .47.38.85.85.85Zm7.69.37h.67c.47 0 .85-.38.85-.85v-1.09a.85.85 0 0 0-.85-.85h-.67a.85.85 0 0 0-.85.85v1.09c0 .47.38.85.85.85Zm6.4.88h.67c.47 0 .85-.38.85-.85V25.5a.85.85 0 0 0-.85-.85h-.67a.85.85 0 0 0-.85.85v1.09c0 .47.38.85.85.85Z"/><path fill="#BCBCFF" d="M32 38.71c-8.24 0-15.51-.82-19.83-2.08A3.21 3.21 0 0 0 8 39.54v.05C8 45.31 18.75 50 32 50s24-4.65 24-10.37v-.05a3.211 3.211 0 0 0-4.17-2.91c-4.32 1.22-11.59 2.04-19.83 2.04Z"/><path fill="#4041D1" d="M32 47.07c12.59 0 22.79-4.41 22.79-9.85a3.35 3.35 0 0 0-3-.57c-4.28 1.24-11.55 2.06-19.79 2.06-8.24 0-15.51-.82-19.83-2.08a3.35 3.35 0 0 0-3 .57c.04 5.46 10.24 9.87 22.83 9.87Z"/><path fill="#EBEEF2" d="M36.31 45.21a4.31 4.31 0 0 0 4.31-4.31v-4.15a1.5 1.5 0 0 0-1-1.42 11.16 11.16 0 0 0-6.54 0 1.5 1.5 0 0 0-1 1.42v4.15a4.31 4.31 0 0 0 4.23 4.31Z"/><path fill="#DCDFE2" d="M44 43.23a3.34 3.34 0 0 0 3.34-3.34v-3.21a1.17 1.17 0 0 0-.8-1.11 8.68 8.68 0 0 0-5.08 0 1.15 1.15 0 0 0-.8 1.11v3.21A3.33 3.33 0 0 0 44 43.23Z"/><path fill="#DCDFE2" d="M50.4 41.42a3.09 3.09 0 0 0 3.09-3.1v-2a1.07 1.07 0 0 0-.74-1 7.85 7.85 0 0 0-4.7 0 1.07 1.07 0 0 0-.74 1v2a3.089 3.089 0 0 0 3.09 3.1Z"/><path fill="#EBEEF2" d="M27.69 45.21a4.31 4.31 0 0 1-4.31-4.31v-4.15a1.5 1.5 0 0 1 1-1.42 11.16 11.16 0 0 1 6.54 0 1.5 1.5 0 0 1 1 1.42v4.15a4.31 4.31 0 0 1-4.23 4.31Z"/><path fill="#DCDFE2" d="M20 43.23a3.34 3.34 0 0 1-3.34-3.34v-3.21a1.17 1.17 0 0 1 .8-1.11 8.68 8.68 0 0 1 5.08 0 1.15 1.15 0 0 1 .8 1.11v3.21A3.328 3.328 0 0 1 20 43.23Z"/><path fill="#DCDFE2" d="M13.6 41.42a3.09 3.09 0 0 1-3.09-3.1v-2a1.07 1.07 0 0 1 .74-1 7.85 7.85 0 0 1 4.7 0 1.07 1.07 0 0 1 .74 1v2a3.09 3.09 0 0 1-3.09 3.1Z"/><path fill="#BCBCFF" d="M32 39.71c-5.86 0-11.37-.24-15.51-.66-6.86-.71-6.86-1.57-6.86-2.05a.5.5 0 0 1 .5-.5.49.49 0 0 1 .49.4c.81.79 8.57 1.85 21.38 1.85 12.81 0 20.57-1.06 21.38-1.85a.49.49 0 0 1 .49-.4.5.5 0 0 1 .5.5c0 .52 0 1.38-6.86 2.09-4.14.38-9.65.62-15.51.62Z"/><path fill="#4041D1" d="M35.98 40.61h.67c.47 0 .85-.38.85-.85v-1.09a.85.85 0 0 0-.85-.85h-.67a.85.85 0 0 0-.85.85v1.09c0 .47.38.85.85.85Zm7.69-.38h.67c.47 0 .85-.38.85-.85v-1.09a.85.85 0 0 0-.85-.85h-.67a.85.85 0 0 0-.85.85v1.09c0 .47.38.85.85.85Zm6.4-.87h.67c.47 0 .85-.38.85-.85v-1.09a.85.85 0 0 0-.85-.85h-.67a.85.85 0 0 0-.85.85v1.09c0 .47.38.85.85.85Zm-22.65-1.55h-.67a.85.85 0 0 0-.85.85v1.09c0 .47.38.85.85.85h.67c.47 0 .85-.38.85-.85v-1.09a.85.85 0 0 0-.85-.85Zm-7.69-.37h-.67a.85.85 0 0 0-.85.85v1.09c0 .47.38.85.85.85h.67c.47 0 .85-.38.85-.85v-1.09a.85.85 0 0 0-.85-.85Zm-6.4-.88h-.67a.85.85 0 0 0-.85.85v1.09c0 .47.38.85.85.85h.67c.47 0 .85-.38.85-.85v-1.09a.85.85 0 0 0-.85-.85Z"/></svg>