<svg xmlns="http://www.w3.org/2000/svg" width="64" height="64" fill="none"><path fill="#4041D1" d="m10.11 28.38 4.68 4.68a.43.43 0 0 0 .6 0l4.68-4.68a.43.43 0 0 0-.3-.73H18.5a.43.43 0 0 1-.43-.43V23.3a.72.72 0 0 0-.72-.72h-4.52a.72.72 0 0 0-.72.72v3.92a.43.43 0 0 1-.43.43h-1.27a.43.43 0 0 0-.3.73Zm33.82 0 4.68 4.68a.43.43 0 0 0 .6 0l4.68-4.68a.43.43 0 0 0-.3-.73h-1.27a.43.43 0 0 1-.43-.43V23.3a.72.72 0 0 0-.72-.72h-4.52a.72.72 0 0 0-.72.72v3.92a.43.43 0 0 1-.43.43h-1.27a.43.43 0 0 0-.3.73Z"/><path fill="#EBEEF2" d="M43.51 13.41a6.54 6.54 0 0 0-10.66-3.87 1.3 1.3 0 0 1-1.7 0 6.54 6.54 0 0 0-9.34 9.07 28.753 28.753 0 0 1 1.83 2.48l3 4.8a2.1 2.1 0 0 0 3.89-1.17v-1.85h3.07l-.06 1.85a2.1 2.1 0 0 0 3.89 1.17l3-4.83a25.157 25.157 0 0 1 1.83-2.51 6.53 6.53 0 0 0 1.25-5.14Z"/><path fill="#DCDFE2" d="m36.66 11.33-.76.35a1.92 1.92 0 0 1-1.9-.17l-2.55-1.79a1.33 1.33 0 0 0 1.4-.18c.448-.384.95-.7 1.49-.94a2.55 2.55 0 0 1 2.54.26 1.44 1.44 0 0 1-.22 2.47Z"/><path fill="#fff" d="M24.32 12.57a.83.83 0 0 1-.58-.25.81.81 0 0 1 0-1.15 4.52 4.52 0 0 1 3.17-1.29.82.82 0 0 1 0 1.63 2.91 2.91 0 0 0-2 .82.78.78 0 0 1-.59.24Zm-1.12 2.65a.81.81 0 0 1-.81-.81v-.12a.818.818 0 0 1 1.192-.764.82.82 0 0 1 .438.854.82.82 0 0 1-.82.84Z"/><path fill="#4041D1" d="M24.27 22.35h15.46a.59.59 0 0 1 .59.59v1.68a1.7 1.7 0 0 1-1.7 1.7H25.38a1.7 1.7 0 0 1-1.7-1.7v-1.69a.59.59 0 0 1 .59-.58Z"/><path fill="#4041D1" d="M25.66 26.31v11c0 .47.188.919.52 1.25L31 43.43a1.36 1.36 0 0 0 1.94 0l4.85-4.86c.332-.331.52-.78.52-1.25v-11l-12.65-.01Z"/><path fill="#BCBCFF" d="m25.66 30.6 12.68-4.2v-.09H33.8L25.66 29v1.6Zm0 3.84 12.68-4.19v-1.6l-12.68 4.19v1.6Zm12.68-1.95-12.68 4.2v.63a1.7 1.7 0 0 0 .25.88l12.43-4.11v-1.6Zm-10.82 7.42 1.2 1.2L38.21 38a1.85 1.85 0 0 0 .13-.66v-1l-10.82 3.57Zm2.89 2.89.62.63a1.37 1.37 0 0 0 1.14.39l.5-.17c.11-.058.211-.133.3-.22l2.2-2.2-4.76 1.57Z"/><path fill="#BCBCFF" d="M56 42.69a4.889 4.889 0 0 0-5.39-4.86c-3.06.32-6.38.57-9.88.72a2.51 2.51 0 0 0-2.39 2.52 6.51 6.51 0 0 1-5.57 6.55 6.348 6.348 0 0 1-7.11-6.29A2.79 2.79 0 0 0 23 38.54c-3.4-.16-6.63-.4-9.61-.71A4.89 4.89 0 0 0 8 42.69v.05C8 50 18.75 55.93 32 55.93S56 50 56 42.74v-.05Z"/><path fill="#fff" d="m27 23.08 4.68 4.68a.43.43 0 0 0 .6 0L37 23.08a.43.43 0 0 0-.3-.73h-1.29a.44.44 0 0 1-.43-.44V18a.73.73 0 0 0-.72-.72h-4.52A.732.732 0 0 0 29 18v3.92a.44.44 0 0 1-.43.44h-1.25a.43.43 0 0 0-.32.72Z"/></svg>